<?xml version="1.0" ?><!DOCTYPE svg  PUBLIC '-//W3C//DTD SVG 1.1//EN'  'http://www.w3.org/Graphics/SVG/1.1/DTD/svg11.dtd'><svg enable-background="new 0 0 512 512" id="Layer_1" version="1.1" viewBox="0 0 512 512" xml:space="preserve" xmlns="http://www.w3.org/2000/svg" xmlns:xlink="http://www.w3.org/1999/xlink"><g><path d="M257.2,6.2c137.8,0,248.9,112.5,248.3,252.6c-0.6,137.9-112,250.5-251.4,249   C117.8,506.3,7.2,394.3,8.5,254.5C9.8,117.3,119.8,6.4,257.2,6.2z M256.8,488.2c124.2,0.4,227.8-100.5,229.2-228.4   c1.4-130.6-102.9-232.8-226.7-234c-125.7-1.2-230.4,100.7-231.1,229C27.5,384.4,129.6,488.2,256.8,488.2z" fill="#04ADEE"/><path d="M281.7,191c1.5-10.4,4.9-19.5,9.3-28.3c16.9-33.8,56.4-57,93.6-54.8c28.9,1.7,48.3,21.8,49.3,50.8   c0.7,21.4-4.8,41.6-12,61.4c-17.4,48.1-46.3,88.9-80.6,126.2c-21.6,23.5-44.9,45-70.9,63.5c-19.6,14-38.5,13.3-57.2-1.9   c-13-10.5-21.3-24-26.7-39.6c-10.7-30.7-19.7-61.9-29.3-92.8c-7.3-23.3-14-46.9-23.3-69.5c-3.7-8.9-8.5-11.2-17.8-8.4   c-7.9,2.4-15,6.5-21.6,11.3c-2.8,2-4.6,2.4-6.8-1c-2.8-4.3-6.2-8.3-9.4-12.3c-1.6-2-1.9-3.7-0.1-5.7c23.8-26.5,48.9-51.4,80-69.4   c7.2-4.2,14.9-7.4,23.1-9.3c15.6-3.5,28.3,2.1,36.4,15.9c9.4,16,13.2,33.7,16.2,51.6c5.6,33.4,11.9,66.5,22.2,98.8   c2.4,7.6,4.9,15.2,9.4,22c4.4,6.5,8.8,7.3,15,2.4c7.8-6.2,13.7-14,19.2-22.2c10.5-15.6,20.6-31.5,27.7-49   c3.4-8.4,4.8-17.3,2.9-26.4c-3.4-16.4-16.3-24.1-32.5-19.7C292.4,186,287.4,188.5,281.7,191z" fill="#01ADEE"/></g></svg>